<mxfile host="app.diagrams.net" agent="Mozilla/5.0 (Windows NT 10.0; Win64; x64) AppleWebKit/537.36 (KHTML, like Gecko) Chrome/129.0.0.0 Safari/537.36" version="24.7.17">
  <diagram name="Page-1" id="c4acf3e9-155e-7222-9cf6-157b1a14988f">
    <mxGraphModel dx="1434" dy="746" grid="1" gridSize="10" guides="1" tooltips="1" connect="1" arrows="1" fold="1" page="1" pageScale="1" pageWidth="850" pageHeight="1100" background="none" math="0" shadow="0">
      <root>
        <mxCell id="0" />
        <mxCell id="1" parent="0" />
        <mxCell id="5d2195bd80daf111-38" style="edgeStyle=orthogonalEdgeStyle;rounded=0;html=1;dashed=1;labelBackgroundColor=none;startFill=0;endArrow=open;endFill=0;endSize=10;fontFamily=Verdana;fontSize=10;" parent="1" edge="1">
          <mxGeometry relative="1" as="geometry">
            <Array as="points">
              <mxPoint x="590" y="721" />
            </Array>
            <mxPoint x="650" y="721" as="sourcePoint" />
          </mxGeometry>
        </mxCell>
        <mxCell id="5d2195bd80daf111-40" style="edgeStyle=orthogonalEdgeStyle;rounded=0;html=1;dashed=1;labelBackgroundColor=none;startFill=0;endArrow=open;endFill=0;endSize=10;fontFamily=Verdana;fontSize=10;" parent="1" edge="1">
          <mxGeometry relative="1" as="geometry">
            <Array as="points" />
            <mxPoint x="730" y="814" as="sourcePoint" />
          </mxGeometry>
        </mxCell>
        <mxCell id="5d2195bd80daf111-39" style="edgeStyle=orthogonalEdgeStyle;rounded=0;html=1;dashed=1;labelBackgroundColor=none;startFill=0;endArrow=open;endFill=0;endSize=10;fontFamily=Verdana;fontSize=10;" parent="1" edge="1">
          <mxGeometry relative="1" as="geometry">
            <mxPoint x="730" y="948" as="sourcePoint" />
          </mxGeometry>
        </mxCell>
        <mxCell id="5d2195bd80daf111-41" style="edgeStyle=orthogonalEdgeStyle;rounded=0;html=1;dashed=1;labelBackgroundColor=none;startFill=0;endArrow=open;endFill=0;endSize=10;fontFamily=Verdana;fontSize=10;" parent="1" edge="1">
          <mxGeometry relative="1" as="geometry">
            <Array as="points" />
            <mxPoint x="730" y="603" as="sourcePoint" />
          </mxGeometry>
        </mxCell>
        <mxCell id="5d2195bd80daf111-35" style="edgeStyle=orthogonalEdgeStyle;rounded=0;html=1;dashed=1;labelBackgroundColor=none;startFill=0;endArrow=open;endFill=0;endSize=10;fontFamily=Verdana;fontSize=10;" parent="1" edge="1">
          <mxGeometry relative="1" as="geometry">
            <Array as="points">
              <mxPoint x="545" y="970" />
              <mxPoint x="545" y="970" />
            </Array>
            <mxPoint x="545" y="963" as="sourcePoint" />
          </mxGeometry>
        </mxCell>
        <mxCell id="5d2195bd80daf111-36" style="edgeStyle=orthogonalEdgeStyle;rounded=0;html=1;dashed=1;labelBackgroundColor=none;startFill=0;endArrow=open;endFill=0;endSize=10;fontFamily=Verdana;fontSize=10;" parent="1" edge="1">
          <mxGeometry relative="1" as="geometry">
            <Array as="points">
              <mxPoint x="550" y="520" />
            </Array>
            <mxPoint x="490" y="520" as="targetPoint" />
          </mxGeometry>
        </mxCell>
        <mxCell id="5d2195bd80daf111-26" style="edgeStyle=orthogonalEdgeStyle;rounded=0;html=1;dashed=1;labelBackgroundColor=none;startFill=0;endArrow=open;endFill=0;endSize=10;fontFamily=Verdana;fontSize=10;" parent="1" edge="1">
          <mxGeometry relative="1" as="geometry">
            <Array as="points" />
            <mxPoint x="685" y="300" as="targetPoint" />
          </mxGeometry>
        </mxCell>
        <mxCell id="5d2195bd80daf111-37" style="edgeStyle=orthogonalEdgeStyle;rounded=0;html=1;dashed=1;labelBackgroundColor=none;startFill=0;endArrow=open;endFill=0;endSize=10;fontFamily=Verdana;fontSize=10;" parent="1" edge="1">
          <mxGeometry relative="1" as="geometry">
            <Array as="points">
              <mxPoint x="570" y="590" />
            </Array>
            <mxPoint x="650" y="590" as="sourcePoint" />
          </mxGeometry>
        </mxCell>
        <mxCell id="HngV6Z71-Gyh6VQ-0Nk7-1" value="Produto" style="swimlane;fontStyle=1;align=center;verticalAlign=top;childLayout=stackLayout;horizontal=1;startSize=26;horizontalStack=0;resizeParent=1;resizeParentMax=0;resizeLast=0;collapsible=1;marginBottom=0;whiteSpace=wrap;html=1;" parent="1" vertex="1">
          <mxGeometry x="30" y="80" width="210" height="170" as="geometry" />
        </mxCell>
        <mxCell id="HngV6Z71-Gyh6VQ-0Nk7-2" value="&lt;div&gt;nome&lt;div&gt;preço&lt;/div&gt;&lt;div&gt;descrição&lt;/div&gt;&lt;div&gt;quantidade em estoque&lt;/div&gt;&lt;/div&gt;" style="text;strokeColor=none;fillColor=none;align=left;verticalAlign=top;spacingLeft=4;spacingRight=4;overflow=hidden;rotatable=0;points=[[0,0.5],[1,0.5]];portConstraint=eastwest;whiteSpace=wrap;html=1;" parent="HngV6Z71-Gyh6VQ-0Nk7-1" vertex="1">
          <mxGeometry y="26" width="210" height="64" as="geometry" />
        </mxCell>
        <mxCell id="HngV6Z71-Gyh6VQ-0Nk7-3" value="" style="line;strokeWidth=1;fillColor=none;align=left;verticalAlign=middle;spacingTop=-1;spacingLeft=3;spacingRight=3;rotatable=0;labelPosition=right;points=[];portConstraint=eastwest;strokeColor=inherit;" parent="HngV6Z71-Gyh6VQ-0Nk7-1" vertex="1">
          <mxGeometry y="90" width="210" height="8" as="geometry" />
        </mxCell>
        <mxCell id="HngV6Z71-Gyh6VQ-0Nk7-4" value="atualizarEstoque()&lt;div&gt;aplicarDesconto()&lt;div&gt;exibirDetalhes()&lt;div&gt;calcularFrete()&lt;/div&gt;&lt;/div&gt;&lt;/div&gt;" style="text;strokeColor=none;fillColor=none;align=left;verticalAlign=top;spacingLeft=4;spacingRight=4;overflow=hidden;rotatable=0;points=[[0,0.5],[1,0.5]];portConstraint=eastwest;whiteSpace=wrap;html=1;" parent="HngV6Z71-Gyh6VQ-0Nk7-1" vertex="1">
          <mxGeometry y="98" width="210" height="72" as="geometry" />
        </mxCell>
        <mxCell id="HngV6Z71-Gyh6VQ-0Nk7-25" value="1" style="edgeStyle=orthogonalEdgeStyle;rounded=0;orthogonalLoop=1;jettySize=auto;html=1;fontSize=20;endArrow=none;endFill=0;" parent="1" source="HngV6Z71-Gyh6VQ-0Nk7-5" target="HngV6Z71-Gyh6VQ-0Nk7-13" edge="1">
          <mxGeometry relative="1" as="geometry" />
        </mxCell>
        <mxCell id="HngV6Z71-Gyh6VQ-0Nk7-5" value="Cliente" style="swimlane;fontStyle=1;align=center;verticalAlign=top;childLayout=stackLayout;horizontal=1;startSize=26;horizontalStack=0;resizeParent=1;resizeParentMax=0;resizeLast=0;collapsible=1;marginBottom=0;whiteSpace=wrap;html=1;" parent="1" vertex="1">
          <mxGeometry x="398" y="30" width="172" height="210" as="geometry" />
        </mxCell>
        <mxCell id="HngV6Z71-Gyh6VQ-0Nk7-6" value="&lt;div&gt;&lt;span style=&quot;background-color: initial;&quot;&gt;nome&lt;/span&gt;&lt;/div&gt;&lt;div&gt;&lt;span style=&quot;background-color: initial;&quot;&gt;email&lt;/span&gt;&lt;/div&gt;&lt;div&gt;endereco&lt;/div&gt;&lt;div&gt;&lt;span style=&quot;background-color: initial;&quot;&gt;telefone&lt;/span&gt;&lt;/div&gt;" style="text;strokeColor=none;fillColor=none;align=left;verticalAlign=top;spacingLeft=4;spacingRight=4;overflow=hidden;rotatable=0;points=[[0,0.5],[1,0.5]];portConstraint=eastwest;whiteSpace=wrap;html=1;" parent="HngV6Z71-Gyh6VQ-0Nk7-5" vertex="1">
          <mxGeometry y="26" width="172" height="64" as="geometry" />
        </mxCell>
        <mxCell id="HngV6Z71-Gyh6VQ-0Nk7-7" value="" style="line;strokeWidth=1;fillColor=none;align=left;verticalAlign=middle;spacingTop=-1;spacingLeft=3;spacingRight=3;rotatable=0;labelPosition=right;points=[];portConstraint=eastwest;strokeColor=inherit;" parent="HngV6Z71-Gyh6VQ-0Nk7-5" vertex="1">
          <mxGeometry y="90" width="172" height="8" as="geometry" />
        </mxCell>
        <mxCell id="HngV6Z71-Gyh6VQ-0Nk7-8" value="cadastrar()&lt;div&gt;atualizarDados()&lt;/div&gt;&lt;div&gt;fazerPedido()&lt;/div&gt;&lt;div&gt;cancelarPedido()&lt;br&gt;&lt;/div&gt;" style="text;strokeColor=none;fillColor=none;align=left;verticalAlign=top;spacingLeft=4;spacingRight=4;overflow=hidden;rotatable=0;points=[[0,0.5],[1,0.5]];portConstraint=eastwest;whiteSpace=wrap;html=1;" parent="HngV6Z71-Gyh6VQ-0Nk7-5" vertex="1">
          <mxGeometry y="98" width="172" height="112" as="geometry" />
        </mxCell>
        <mxCell id="HngV6Z71-Gyh6VQ-0Nk7-24" value="&lt;font style=&quot;font-size: 20px;&quot;&gt;*&lt;/font&gt;" style="edgeStyle=orthogonalEdgeStyle;rounded=0;orthogonalLoop=1;jettySize=auto;html=1;endArrow=none;endFill=0;" parent="1" source="HngV6Z71-Gyh6VQ-0Nk7-9" target="HngV6Z71-Gyh6VQ-0Nk7-13" edge="1">
          <mxGeometry relative="1" as="geometry">
            <mxPoint as="offset" />
          </mxGeometry>
        </mxCell>
        <mxCell id="HngV6Z71-Gyh6VQ-0Nk7-9" value="Pagamento" style="swimlane;fontStyle=1;align=center;verticalAlign=top;childLayout=stackLayout;horizontal=1;startSize=26;horizontalStack=0;resizeParent=1;resizeParentMax=0;resizeLast=0;collapsible=1;marginBottom=0;whiteSpace=wrap;html=1;" parent="1" vertex="1">
          <mxGeometry x="570" y="410" width="160" height="198" as="geometry" />
        </mxCell>
        <mxCell id="HngV6Z71-Gyh6VQ-0Nk7-10" value="nome: String&lt;div&gt;preço: float&lt;/div&gt;&lt;div&gt;descrição: String&lt;/div&gt;&lt;div&gt;quantidade em estoque: int&lt;br&gt;&lt;/div&gt;" style="text;strokeColor=none;fillColor=none;align=left;verticalAlign=top;spacingLeft=4;spacingRight=4;overflow=hidden;rotatable=0;points=[[0,0.5],[1,0.5]];portConstraint=eastwest;whiteSpace=wrap;html=1;" parent="HngV6Z71-Gyh6VQ-0Nk7-9" vertex="1">
          <mxGeometry y="26" width="160" height="64" as="geometry" />
        </mxCell>
        <mxCell id="HngV6Z71-Gyh6VQ-0Nk7-11" value="" style="line;strokeWidth=1;fillColor=none;align=left;verticalAlign=middle;spacingTop=-1;spacingLeft=3;spacingRight=3;rotatable=0;labelPosition=right;points=[];portConstraint=eastwest;strokeColor=inherit;" parent="HngV6Z71-Gyh6VQ-0Nk7-9" vertex="1">
          <mxGeometry y="90" width="160" height="8" as="geometry" />
        </mxCell>
        <mxCell id="HngV6Z71-Gyh6VQ-0Nk7-12" value="atualizarEstoque()&lt;div&gt;aplicarDesconto()&lt;div&gt;exibirDetalhes()&lt;div&gt;calcularFrete()&lt;br&gt;&lt;/div&gt;&lt;/div&gt;&lt;/div&gt;" style="text;strokeColor=none;fillColor=none;align=left;verticalAlign=top;spacingLeft=4;spacingRight=4;overflow=hidden;rotatable=0;points=[[0,0.5],[1,0.5]];portConstraint=eastwest;whiteSpace=wrap;html=1;" parent="HngV6Z71-Gyh6VQ-0Nk7-9" vertex="1">
          <mxGeometry y="98" width="160" height="100" as="geometry" />
        </mxCell>
        <mxCell id="HngV6Z71-Gyh6VQ-0Nk7-26" value="*" style="edgeStyle=orthogonalEdgeStyle;rounded=0;orthogonalLoop=1;jettySize=auto;html=1;fontSize=20;endArrow=none;endFill=0;" parent="1" source="HngV6Z71-Gyh6VQ-0Nk7-13" target="HngV6Z71-Gyh6VQ-0Nk7-1" edge="1">
          <mxGeometry relative="1" as="geometry" />
        </mxCell>
        <mxCell id="HngV6Z71-Gyh6VQ-0Nk7-13" value="Pedido" style="swimlane;fontStyle=1;align=center;verticalAlign=top;childLayout=stackLayout;horizontal=1;startSize=26;horizontalStack=0;resizeParent=1;resizeParentMax=0;resizeLast=0;collapsible=1;marginBottom=0;whiteSpace=wrap;html=1;" parent="1" vertex="1">
          <mxGeometry x="280" y="390" width="160" height="210" as="geometry" />
        </mxCell>
        <mxCell id="HngV6Z71-Gyh6VQ-0Nk7-14" value="&lt;div&gt;numero: int&lt;/div&gt;&lt;div&gt;data: String&lt;/div&gt;&lt;div&gt;cliente: Cliente&lt;/div&gt;&lt;div&gt;listaProdutos: List&amp;lt;Produto&amp;gt;&lt;/div&gt;" style="text;strokeColor=none;fillColor=none;align=left;verticalAlign=top;spacingLeft=4;spacingRight=4;overflow=hidden;rotatable=0;points=[[0,0.5],[1,0.5]];portConstraint=eastwest;whiteSpace=wrap;html=1;" parent="HngV6Z71-Gyh6VQ-0Nk7-13" vertex="1">
          <mxGeometry y="26" width="160" height="84" as="geometry" />
        </mxCell>
        <mxCell id="HngV6Z71-Gyh6VQ-0Nk7-15" value="" style="line;strokeWidth=1;fillColor=none;align=left;verticalAlign=middle;spacingTop=-1;spacingLeft=3;spacingRight=3;rotatable=0;labelPosition=right;points=[];portConstraint=eastwest;strokeColor=inherit;" parent="HngV6Z71-Gyh6VQ-0Nk7-13" vertex="1">
          <mxGeometry y="110" width="160" height="8" as="geometry" />
        </mxCell>
        <mxCell id="HngV6Z71-Gyh6VQ-0Nk7-16" value="&lt;div&gt;adicionarProduto(Produto produto, int quantidade)&lt;/div&gt;&lt;div&gt;removerProduto(Produto produto)&lt;/div&gt;&lt;div&gt;calcularTotal()&lt;/div&gt;&lt;div&gt;exibirDetalhes()&lt;/div&gt;" style="text;strokeColor=none;fillColor=none;align=left;verticalAlign=top;spacingLeft=4;spacingRight=4;overflow=hidden;rotatable=0;points=[[0,0.5],[1,0.5]];portConstraint=eastwest;whiteSpace=wrap;html=1;" parent="HngV6Z71-Gyh6VQ-0Nk7-13" vertex="1">
          <mxGeometry y="118" width="160" height="92" as="geometry" />
        </mxCell>
        <mxCell id="HngV6Z71-Gyh6VQ-0Nk7-59" value="Diagrama de Classe" style="text;html=1;align=center;verticalAlign=middle;resizable=0;points=[];autosize=1;strokeColor=none;fillColor=none;" parent="1" vertex="1">
          <mxGeometry x="30" y="6" width="130" height="30" as="geometry" />
        </mxCell>
      </root>
    </mxGraphModel>
  </diagram>
</mxfile>
